<?xml version="1.0" encoding="utf-8"?>
<!-- Generator: Adobe Illustrator 17.0.0, SVG Export Plug-In . SVG Version: 6.00 Build 0)  -->
<!DOCTYPE svg PUBLIC "-//W3C//DTD SVG 1.1//EN" "http://www.w3.org/Graphics/SVG/1.1/DTD/svg11.dtd">
<svg version="1.1" id="Capa_1" xmlns="http://www.w3.org/2000/svg" xmlns:xlink="http://www.w3.org/1999/xlink" x="0px" y="0px"
	 width="46px" height="49px" viewBox="0 0 46 49" enable-background="new 0 0 46 49" xml:space="preserve">
<rect x="-3982.182" y="42.56" fill="none" width="4068" height="1872"/>
<rect x="-3982.182" y="42.56" fill="none" width="4068" height="1872"/>
<rect x="-3982.182" y="42.56" fill="none" width="4068" height="1872"/>
<g>
	<path d="M34.572,29.136c-2.133-2.133-4.751-3.604-7.605-4.312c3.02-1.474,5.106-4.577,5.106-8.158c0-5.002-4.07-9.072-9.073-9.072
		c-5.002,0-9.072,4.07-9.072,9.072c0,3.581,2.086,6.684,5.106,8.158c-2.854,0.708-5.472,2.179-7.605,4.312
		c-3.091,3.091-4.793,7.2-4.793,11.572c0,0.385,0.312,0.698,0.698,0.698h31.334c0.385,0,0.698-0.312,0.698-0.698
		C39.365,36.337,37.663,32.227,34.572,29.136L34.572,29.136z M15.324,16.666c0-4.233,3.444-7.677,7.677-7.677
		s7.676,3.444,7.676,7.677c0,4.233-3.443,7.677-7.676,7.677S15.324,20.899,15.324,16.666L15.324,16.666z M8.047,40.01
		C8.412,32.078,14.98,25.739,23,25.739c8.02,0,14.587,6.34,14.953,14.271H8.047z M8.047,40.01"/>
	<path d="M16.969,29.229c-0.198-0.331-0.626-0.439-0.957-0.241c-3.139,1.875-5.428,4.981-6.278,8.521
		c-0.09,0.375,0.141,0.752,0.515,0.842c0.055,0.013,0.11,0.02,0.164,0.02c0.315,0,0.601-0.215,0.678-0.535
		c0.764-3.177,2.818-5.965,5.637-7.649C17.059,29.988,17.167,29.56,16.969,29.229L16.969,29.229z M16.969,29.229"/>
	<path d="M23,27.065c-1.068,0-2.132,0.124-3.162,0.369c-0.375,0.089-0.606,0.465-0.517,0.84c0.076,0.321,0.362,0.537,0.678,0.537
		c0.053,0,0.107-0.006,0.162-0.019c0.924-0.219,1.88-0.331,2.839-0.331c0.386,0,0.698-0.312,0.698-0.698
		C23.698,27.377,23.385,27.065,23,27.065L23,27.065z M23,27.065"/>
</g>
</svg>
